<svg id="Layer_2" data-name="Layer 2" xmlns="http://www.w3.org/2000/svg" viewBox="0 0 1000 207.14"><defs><style>.cls-1{fill:#fff;}</style></defs><title>ERyP_LogoW</title><polygon class="cls-1" points="253.44 120.02 252.18 122.86 266.92 126.75 253.44 120.02"/><path class="cls-1" d="M373.23,81.21c1.74,3.11,1.87,5.72.42,8.19-1.08,1.82-3.9,3-5.31,3.53a3.74,3.74,0,0,0,3.29,2h.14A7.08,7.08,0,0,0,376.15,93a10.38,10.38,0,0,0,1.19-1.2,9.82,9.82,0,0,0,2.5-6v0c0-.67,0-1.3,0-1.92-.34-5.86-3.61-10-22.92-23-1.56-.93-4-3.55-3.81-6.5A34.79,34.79,0,0,1,355,47.29l.08-.22a2.53,2.53,0,0,0-.27-2c-.55-.84-1.8-1.47-3.71-1.85a25.85,25.85,0,0,0-4.9-.42,19.08,19.08,0,0,0-7.72,1.37,22,22,0,0,0-7.58,5.7,17.55,17.55,0,0,0-1.37,1.87,15.48,15.48,0,0,0-2.29,6.1,12.79,12.79,0,0,0-.15,1.53c0,.06,0,.12,0,.19-.19,6.54,5.32,12.13,8.36,14.54-4.27-5.72-5.43-12.74-2.91-18.31s8.33-8.56,15.61-8l.95.08-.29.91s0,.09-.08.2c-1,2.41-3.83,10.59,2.28,14.56l1.07.68C359.9,69.27,370.58,76.45,373.23,81.21Z"/><path class="cls-1" d="M383.92,107.25a11.19,11.19,0,0,1-5.29,3.78c1.88,1.93,4.42,5.33,4,9.4-.48,4.89-5,9.37-13.34,13.34,11-.1,15.37-3.69,17.05-6.71C389.79,120.94,389,114.28,383.92,107.25Z"/><path class="cls-1" d="M325.71,58a16.72,16.72,0,0,1,1.85-5.78l-1.49.25A32.23,32.23,0,0,1,324.92,58Z"/><path class="cls-1" d="M377.39,109.87a10,10,0,0,0,5.52-3.86c.09-.14.19-.28.27-.43a8.75,8.75,0,0,0,.44-.92,17.78,17.78,0,0,0-2.44-17.22,12,12,0,0,1-3.32,6,11.69,11.69,0,0,1-.7,8.63c-2.47,4.45-8.53,6.89-18,7.27a18.37,18.37,0,0,0,7.53,1.78,41,41,0,0,0,8.95-.82Q376.54,110.14,377.39,109.87Z"/><path class="cls-1" d="M282.05,110.94a16.35,16.35,0,0,0,7.27,1.54,36.51,36.51,0,0,0,12.92-2.83.5.5,0,0,0-.25-1,33.12,33.12,0,0,1-3.87.21,26.27,26.27,0,0,1-11.27-2.22l-.11.1C285.23,108.14,283.64,109.55,282.05,110.94Z"/><path class="cls-1" d="M317.06,30.62a.8.8,0,0,1-.17-.33c-1.58-6.95-9.15-11.1-15.55-11.1a13.63,13.63,0,0,0-3,.31.91.91,0,0,1-.33,0,31.88,31.88,0,0,0-24.34,3.69c-13.28,8.4-14.63,35.25-15.83,58.93-.14,2.79-.28,5.52-.43,8.16-.12,2-.22,4-.33,5.91-.49,9.14-.91,17.09-2.31,22,.65.19,1.32.39,2,.63.35-1.31.8-3,1.34-4.9a.76.76,0,0,1,1.48.36c-.46,2.21-.85,3.88-1.2,5.08,1.08.38,2.08.75,3,1.14a61,61,0,0,1,5.9,2.78c2.12-3.37,7.45-8,13.07-13,1.77-1.55,3.56-3.12,5.25-4.66,10.51-9.53,42.5-38.54,38.66-59.59A32.61,32.61,0,0,0,317.06,30.62ZM301.71,51.54c2.69-9.24,3-16.64.78-22a.76.76,0,0,1,1.08-.95A49.4,49.4,0,0,1,308,31.37a.85.85,0,0,1,.29.36,3,3,0,0,1,.12.37c.95,4.1-.79,10.63-5.31,20a.76.76,0,0,1-.68.43.66.66,0,0,1-.28,0A.76.76,0,0,1,301.71,51.54Zm10.77-7.87a.73.73,0,0,1,.82-.48.77.77,0,0,1,.65.7c.57,8.09-2.3,17.13-7.68,24.18-8.91,11.7-16.07,19.52-22.39,26.41L280.65,98a.79.79,0,0,1-.57.25.74.74,0,0,1-.45-.15.77.77,0,0,1-.2-1c.84-1.39,2.82-4.29,5.56-8.31C293.11,76.88,308.24,54.68,312.48,43.67ZM282.1,30.92a25,25,0,0,1,9.14-5.38.76.76,0,0,1,.7,1.32c-6.84,5.45-13.83,18.66-20.78,39.25a.77.77,0,0,1-.73.52l-.2,0a.77.77,0,0,1-.54-.9C273.52,49,277.53,37.62,282,31.06A.86.86,0,0,1,282.1,30.92ZM265.18,44.31c2.76-8.75,6.51-14.58,11.48-17.83l.14-.08a.79.79,0,0,1,.92.14.72.72,0,0,1,.15.88c-.3.53-.59,1.08-.88,1.65a.66.66,0,0,1-.14.2l-.21.2c-.16.17-.33.33-.5.5a51.12,51.12,0,0,0-9.54,14.88.75.75,0,0,1-.69.45.65.65,0,0,1-.27,0A.76.76,0,0,1,265.18,44.31ZM259,110.22a.76.76,0,0,1-.73.56l-.19,0a.75.75,0,0,1-.55-.9c.43-1.88.84-4,1.28-6.21l.09-.47c.54-3.74.8-7.72,1.08-12.52.18-3.05.55-6.23.9-9.3.27-2.35.55-4.77.75-7.18,1.24-7.79,2.93-18.38,8-27.51a.76.76,0,0,1,1.41.54C268,60.41,265.44,76.08,263.16,91c-1.2,4.6-2.09,9.11-2.74,12.4A54.26,54.26,0,0,1,259,110.22Zm2.2,8.39a.77.77,0,0,1-.75-.88c.47-3.21,23.37-80.15,35.95-88.45a.77.77,0,0,1,1.1.31C303.45,41.71,278,94,275.09,98.48c-2.78,4.34-5.47,8.25-7.84,11.7-2.15,3.14-4,5.84-5.38,8.07A.77.77,0,0,1,261.22,118.61Zm22-14.41c-6.48,6.35-12.08,11.84-15.34,16.22h0c-.18.24-.35.48-.51.71a.75.75,0,0,1-.62.32.79.79,0,0,1-.44-.14.77.77,0,0,1-.18-1.06c.17-.24.34-.48.53-.73,3.19-4.34,8.28-10.12,15.32-18.11,7.19-8.15,16.13-18.3,27.32-31.71,4-4.83,7.24-12.33,8.78-20.56a.78.78,0,0,1,.79-.62.76.76,0,0,1,.72.7C321,67.21,299.16,88.59,283.24,104.2Z"/><path class="cls-1" d="M229.79,147l-.93-3.83c-12.09.21-58.88,1.64-63.16,11.25C186,146.93,220.08,146.88,229.79,147Z"/><path class="cls-1" d="M153.73,106.66c-17.95-3.63-28.6-9-31.67-16.1a18,18,0,0,1,1.06-17.12c3.46-5.28,9.58-8.26,17.28-8.47a26.87,26.87,0,0,1,2.4-8.6c-9.28.64-30.36,4.41-31.08,25.63a18.64,18.64,0,0,0,5.17,14.12c8.87,9.17,26.67,10.54,36.5,10.54Z"/><path class="cls-1" d="M217,165.59a72.06,72.06,0,0,0-20.8-3.08,79.73,79.73,0,0,0-31.94,7l-1.37.59,0-1.49c-.19-5.44-7.54-45.54-8.84-52.59l-4.8,1.17c.91,6.18,6.14,42,8.87,62.63C168.14,171.51,188.77,164.11,217,165.59Z"/><path class="cls-1" d="M229.92,100l.1-.4.35-.22C230.72,99.14,265,76,254.5,53.89c-4.07-8.61-11.23-13-21.27-13a49.83,49.83,0,0,0-16.83,3.37,24.47,24.47,0,0,1,3.51,6.9,18,18,0,0,1,9.69-2.9,18.33,18.33,0,0,1,17.48,13.49c3.2,11.46-4.55,24.14-20.73,33.93-6.39,3.87-12.32,5.83-17.61,5.83h0c-12.1,0-18.06-9.89-21.27-15.2l-.49-.81c-.78,2.51-.26,6.09,1.45,9.34s7.07,10.65,20.42,10.65a45.36,45.36,0,0,0,11-1.48l.93-.24.29.92c2.14,6.89,6.23,23.31,9.88,38.45.32,1.31.63,2.61.94,3.9,3.46,14.39,6.31,26.68,6.37,26.94l.28,1.19a32.3,32.3,0,0,0,6.24,1.45C238.74,158,226.11,115.64,229.92,100Z"/><path class="cls-1" d="M142.36,66c0,.34,0,.67,0,1s0,.38,0,.56c.16,7.22,4.45,12.37,11.62,14.15-4.47-7.3-5.51-14.26-3-20.23,3.5-8.34,13.48-14,29.67-16.75a63,63,0,0,1,10.58-1c19.83,0,22.52,12.47,24,19.16.13.6.25,1.15.37,1.64,2.64-1.49,3.87-5.2,3.14-9.82,0,0,0,0,0-.07-.06-.37-.14-.75-.22-1.13-.14-.61-.3-1.22-.5-1.83a22.46,22.46,0,0,0-3.5-6.61c-.21-.28-.43-.56-.65-.83l-.7-.81c-5.06-5.6-13.41-9.8-25-9.8a58.53,58.53,0,0,0-10.58,1c-15.44,2.84-26,10.81-31.28,19.57-.21.34-.41.68-.59,1s-.37.68-.54,1A25.23,25.23,0,0,0,142.44,65C142.4,65.3,142.38,65.64,142.36,66Z"/><path class="cls-1" d="M362.78,143.41c-25.58,0-64.94-8.2-79.34-19.18a53.32,53.32,0,0,1-8-7.37c-1.44,1.32-2.77,2.6-3.89,3.78,2.56,3.82,6.57,7.89,12.74,12,14.58,9.57,45,17.07,69.27,17.07,13.17,0,22.61-2.32,26.57-6.53a8.1,8.1,0,0,0,1.78-2.89C378.61,142.35,372.22,143.41,362.78,143.41Z"/><path class="cls-1" d="M274.39,177.72a29,29,0,0,1-6.26-3.85,1.23,1.23,0,0,1-.42-.86c.36-7.93,4-41.76,4.65-47.92a32.84,32.84,0,0,1-2.24-2.9,14.67,14.67,0,0,0-1.76,2.46.8.8,0,0,1-.45.38l-.22,0a.83.83,0,0,1-.27-.07c-1.47,14.59-4.09,41.25-4.06,45.73a10.66,10.66,0,0,0,2.4,6.85C267.73,177.4,271.25,177.62,274.39,177.72Z"/><path class="cls-1" d="M364.09,158.57c-.8,1.77-5.27,11.62-9.93,20.93a23.72,23.72,0,0,1,2.54,2.66c5-10.15,10.59-21.27,12.2-24.49Z"/><path class="cls-1" d="M241.11,157.58c5.67-14,11.56-28.67,12.71-31.55l-2.51-.82-12.17,25.28C239.79,152.9,240.45,155.28,241.11,157.58Z"/><path class="cls-1" d="M264.65,130.47l-3.93-1.15-14.8,44.23,0,.1c1-.34,2.13-.79,3.29-1.28C255.49,155.44,263.35,134,264.65,130.47Z"/><path class="cls-1" d="M532.54,120.89l-8.17-12.44c-.78,0-1.61.11-2.5.11H511.54v12.33h-4.45V82h14.78c9.72,0,15.34,4.78,15.34,13.06,0,6.39-3.17,10.77-8.78,12.55l9.16,13.28Zm-10.67-16.44c7.06,0,11.06-3.17,11.06-9.28,0-6-4-9.06-11.06-9.06H511.54v18.34Z"/><path class="cls-1" d="M577.81,82v4.11H555.87V99.17h19.61v4H555.87v13.56h22.67v4.11H551.42V82Z"/><path class="cls-1" d="M621.53,95.06c0,8.55-5.56,13.5-15.17,13.5H596.2v12.33h-4.45V82h14.61C616,82,621.53,86.78,621.53,95.06Zm-4.28.11c0-6-4-9.06-11-9.06h-10v18.34h10C613.2,104.45,617.25,101.28,617.25,95.17Z"/><path class="cls-1" d="M670.14,101.45c0,10.94-9,19.61-20.34,19.61s-20.39-8.67-20.39-19.61,9-19.56,20.39-19.56S670.14,90.5,670.14,101.45Zm-36.23,0a15.84,15.84,0,0,0,31.67,0,15.84,15.84,0,0,0-31.67,0Z"/><path class="cls-1" d="M693.69,86.17c-5,0-8.28,2-8.28,5.33,0,10.11,21.89,4.83,21.83,19,0,6.44-5.72,10.61-14,10.61a22.18,22.18,0,0,1-14.89-6l2-3.83a19.54,19.54,0,0,0,12.94,5.44c5.61,0,9.11-2.27,9.11-6,.06-10.39-21.83-4.89-21.83-18.84,0-6.11,5.39-10,13.44-10a23,23,0,0,1,12.34,3.62l-1.89,3.94A20.46,20.46,0,0,0,693.69,86.17Z"/><path class="cls-1" d="M745.07,82v4.11H732.35v34.78h-4.44V86.11H715.24V82Z"/><path class="cls-1" d="M782.07,82v4.11h-22V99.17h19.62v4H760.12v13.56h22.67v4.11H755.68V82Z"/><path class="cls-1" d="M821.45,120.89l-8.16-12.44c-.78,0-1.61.11-2.5.11H800.45v12.33H796V82h14.78c9.72,0,15.33,4.78,15.33,13.06,0,6.39-3.17,10.77-8.78,12.55l9.17,13.28Zm-10.66-16.44c7.05,0,11.05-3.17,11.05-9.28,0-6-4-9.06-11.05-9.06H800.45v18.34Z"/><path class="cls-1" d="M850.67,71.61l-6.89,5.5h-4.17l6.67-7.5ZM844.78,82v38.89h-4.44V82Z"/><path class="cls-1" d="M885.28,111H864.11l-4.33,9.94h-4.72L872.5,82h4.61l17.39,38.89h-4.83Zm-1.78-4.12-8.83-20-8.72,20Z"/><path class="cls-1" d="M534.54,184.83l-6.5-6.45c-3.56,3.83-7.67,6-12.06,6-6.44,0-11.55-4.5-11.55-10.62,0-5.61,4.28-8.55,8.83-11-2.67-3.5-4-6.44-4-9.27,0-4.84,3.83-8.34,9.5-8.34,5.39,0,9,3.23,9,7.78,0,5.28-4.78,8-9.67,10.61,2.39,2.78,5.56,6,9.56,9.89a40,40,0,0,0,3.94-7.55l2.95,2.22a42,42,0,0,1-4.39,7.83l6.72,6.61ZM525.59,176c-4.33-4.33-7.83-7.89-10.44-10.94-3.83,2.11-7.06,4.5-7.06,8.39,0,4.39,3.56,7.5,8.06,7.5C519.48,180.94,522.76,179.16,525.59,176Zm-9.38-14.83c4.27-2.22,8-4.33,8-8.28,0-2.89-2.12-4.89-5.45-4.89-3.61,0-5.94,2.39-5.94,5.45C512.82,155.71,514,158.16,516.21,161.16Z"/><path class="cls-1" d="M623.7,158.33c0,8.55-5.56,13.5-15.17,13.5H598.36v12.33h-4.44V145.27h14.61C618.14,145.27,623.7,150.05,623.7,158.33Zm-4.28.11c0-5.95-4.06-9.06-11.06-9.06h-10v18.33h10C615.36,167.71,619.42,164.55,619.42,158.44Z"/><path class="cls-1" d="M671.25,174.21H650.08l-4.33,9.95H641l17.45-38.89h4.61l17.39,38.89h-4.83Zm-1.78-4.11-8.83-20-8.73,20Z"/><path class="cls-1" d="M709,145.27l23.34,31.61V145.27h4.39v38.89h-4.56L708.8,152.6v31.56h-4.45V145.27Z"/><path class="cls-1" d="M804.79,145.27,819,173.49l14.17-28.22h5.44v38.89h-4.11l-.06-32.33-14.16,28.22h-2.67l-14.11-28.22v32.33h-4.22V145.27Z"/><path class="cls-1" d="M869.78,145.27l10.72,15.17,10.84-15.17h5.22l-13.22,18.67,14.33,20.22h-5.33L880.5,167.77l-11.72,16.39h-5.22l14.27-20-13.27-18.89Z"/><path class="cls-1" d="M533.48,18.76v4.11H511.54V35.92h19.61V40H511.54V53.53h22.67v4.12H507.09V18.76Z"/><path class="cls-1" d="M562.59,18.76l10.72,15.16,10.84-15.16h5.22L576.15,37.42l14.33,20.23h-5.33L573.31,41.26,561.59,57.65h-5.22l14.27-20L557.37,18.76Z"/><path class="cls-1" d="M645.53,31.81c0,8.56-5.56,13.5-15.17,13.5H620.2V57.65h-4.45V18.76h14.61C640,18.76,645.53,23.53,645.53,31.81Zm-4.28.11c0-5.94-4-9-11-9h-10V41.2h10C637.2,41.2,641.25,38,641.25,31.92Z"/><path class="cls-1" d="M707.75,38.2c0,10.95-9,19.61-20.34,19.61S667,49.15,667,38.2s9-19.56,20.39-19.56S707.75,27.26,707.75,38.2Zm-36.23,0a15.84,15.84,0,0,0,31.67,0,15.84,15.84,0,0,0-31.67,0Z"/></svg>