<svg id="Layer_1" data-name="Layer 1" xmlns="http://www.w3.org/2000/svg" viewBox="0 0 1000 248.23"><defs><style>.cls-1,.cls-7,.cls-8{fill:#c8916b;}.cls-2,.cls-3,.cls-4{fill:#005996;}.cls-3,.cls-4,.cls-8{font-size:55.55px;font-family:Montserrat-Light, Montserrat;}.cls-3{letter-spacing:0.08em;}.cls-4{letter-spacing:0.32em;}.cls-5{letter-spacing:0.28em;}.cls-6,.cls-7,.cls-8{letter-spacing:0.32em;}.cls-9{fill:none;stroke:#005996;stroke-miterlimit:10;stroke-width:2px;}</style></defs><title>ERyP_LogoC</title><polygon class="cls-1" points="253.44 140.57 252.18 143.41 266.92 147.3 253.44 140.57"/><path class="cls-1" d="M373.23,101.76c1.74,3.11,1.87,5.71.42,8.19-1.08,1.82-3.9,3-5.31,3.53a3.74,3.74,0,0,0,3.29,2h.14a7.2,7.2,0,0,0,4.38-1.94,11.24,11.24,0,0,0,1.19-1.2,9.82,9.82,0,0,0,2.5-6v0c0-.67,0-1.31,0-1.92-.34-5.86-3.61-10-22.92-23-1.56-.93-4-3.55-3.81-6.51A34.91,34.91,0,0,1,355,67.84l.08-.22a2.56,2.56,0,0,0-.27-2c-.55-.84-1.8-1.46-3.71-1.85a26.72,26.72,0,0,0-4.9-.42,19.25,19.25,0,0,0-7.72,1.37,22.23,22.23,0,0,0-7.58,5.7,19.85,19.85,0,0,0-1.37,1.87,15.52,15.52,0,0,0-2.29,6.11,12.82,12.82,0,0,0-.15,1.52c0,.07,0,.13,0,.2-.19,6.54,5.32,12.13,8.36,14.53C331.19,89,330,81.94,332.55,76.37s8.33-8.55,15.61-8l.95.08-.29.9a1.73,1.73,0,0,1-.08.21c-1,2.41-3.83,10.59,2.28,14.56l1.07.68C359.9,89.82,370.58,97,373.23,101.76Z"/><path class="cls-1" d="M383.92,127.8a11.19,11.19,0,0,1-5.29,3.78c1.88,1.93,4.42,5.32,4,9.39-.48,4.89-5,9.38-13.34,13.35,11-.1,15.37-3.69,17.05-6.71C389.79,141.49,389,134.82,383.92,127.8Z"/><path class="cls-1" d="M325.71,78.49a16.74,16.74,0,0,1,1.85-5.77l-1.49.25a32.42,32.42,0,0,1-1.15,5.58Z"/><path class="cls-1" d="M377.39,130.42a10,10,0,0,0,5.52-3.86c.09-.14.19-.28.27-.43a8.75,8.75,0,0,0,.44-.92A17.78,17.78,0,0,0,381.18,108a12,12,0,0,1-3.32,6.05,11.66,11.66,0,0,1-.7,8.62c-2.47,4.45-8.53,6.9-18,7.27a18.21,18.21,0,0,0,7.53,1.78,40.94,40.94,0,0,0,8.95-.81Q376.54,130.69,377.39,130.42Z"/><path class="cls-1" d="M282.05,131.49a16.48,16.48,0,0,0,7.27,1.54,36.51,36.51,0,0,0,12.92-2.83.51.51,0,0,0,.31-.6.52.52,0,0,0-.56-.38,29.36,29.36,0,0,1-3.87.22,26.27,26.27,0,0,1-11.27-2.22l-.11.1C285.23,128.69,283.64,130.09,282.05,131.49Z"/><path class="cls-2" d="M317.06,51.17a.87.87,0,0,1-.17-.33c-1.58-7-9.15-11.1-15.55-11.1a13.63,13.63,0,0,0-3,.31.74.74,0,0,1-.33,0,31.88,31.88,0,0,0-24.34,3.7c-13.28,8.4-14.63,35.25-15.83,58.93-.14,2.79-.28,5.52-.43,8.15-.12,2-.22,4-.33,5.92-.49,9.13-.91,17.08-2.31,22,.65.18,1.32.39,2,.62.35-1.3.8-3,1.34-4.89a.76.76,0,0,1,.91-.54.77.77,0,0,1,.57.9c-.46,2.21-.85,3.88-1.2,5.08,1.08.37,2.08.75,3,1.14a63.39,63.39,0,0,1,5.9,2.77c2.12-3.36,7.45-8,13.07-13,1.77-1.56,3.56-3.12,5.25-4.66,10.51-9.53,42.5-38.54,38.66-59.59A32.56,32.56,0,0,0,317.06,51.17ZM301.71,72.09c2.69-9.24,3-16.65.78-22a.76.76,0,0,1,1.08-1A51.77,51.77,0,0,1,308,51.91a.87.87,0,0,1,.29.37,3,3,0,0,1,.12.37c.95,4.1-.79,10.63-5.31,20a.76.76,0,0,1-.68.43.87.87,0,0,1-.28,0A.76.76,0,0,1,301.71,72.09Zm10.77-7.88a.75.75,0,0,1,.82-.48.79.79,0,0,1,.65.7c.57,8.1-2.3,17.14-7.68,24.19-8.91,11.7-16.07,19.51-22.39,26.41l-3.23,3.55a.79.79,0,0,1-.57.25.74.74,0,0,1-.45-.15.77.77,0,0,1-.2-1c.84-1.39,2.82-4.29,5.56-8.31C293.11,97.43,308.24,75.23,312.48,64.21ZM282.1,51.46a25.13,25.13,0,0,1,9.14-5.38.77.77,0,0,1,.9.38.76.76,0,0,1-.2.95c-6.84,5.45-13.83,18.66-20.78,39.25a.78.78,0,0,1-.73.51.71.71,0,0,1-.2,0,.77.77,0,0,1-.54-.91c3.83-16.74,7.84-28.07,12.28-34.63Zm-16.92,13.4c2.76-8.75,6.51-14.58,11.48-17.83l.14-.08a.8.8,0,0,1,.92.13.74.74,0,0,1,.15.89c-.3.53-.59,1.07-.88,1.65a.66.66,0,0,1-.14.2l-.21.2c-.16.17-.33.33-.5.5A51,51,0,0,0,266.6,65.4a.75.75,0,0,1-.69.45.65.65,0,0,1-.27,0A.76.76,0,0,1,265.18,64.86ZM259,130.77a.76.76,0,0,1-.73.55.65.65,0,0,1-.19,0,.75.75,0,0,1-.55-.9c.43-1.89.84-4,1.28-6.22l.09-.46c.54-3.75.8-7.72,1.08-12.53.18-3,.55-6.22.9-9.29.27-2.35.55-4.78.75-7.18,1.24-7.79,2.93-18.38,8-27.52a.78.78,0,0,1,.94-.34.75.75,0,0,1,.47.88c-3.07,13.22-5.6,28.89-7.88,43.85-1.2,4.59-2.09,9.11-2.74,12.4A54.26,54.26,0,0,1,259,130.77Zm2.2,8.38a.75.75,0,0,1-.26,0,.76.76,0,0,1-.49-.83c.47-3.22,23.37-80.15,35.95-88.45a.78.78,0,0,1,.61-.1.79.79,0,0,1,.49.4c5.93,12.13-19.53,64.38-22.43,68.9-2.78,4.34-5.47,8.25-7.84,11.7-2.15,3.13-4,5.84-5.38,8.06A.77.77,0,0,1,261.22,139.15Zm22-14.4c-6.48,6.35-12.08,11.84-15.34,16.22h0c-.18.24-.35.48-.51.71a.78.78,0,0,1-.62.32.79.79,0,0,1-.44-.14.77.77,0,0,1-.18-1.06c.17-.24.34-.49.53-.73C269.87,135.72,275,130,282,122c7.19-8.15,16.13-18.3,27.32-31.71,4-4.84,7.24-12.33,8.78-20.57a.76.76,0,0,1,1.51.09C321,87.76,299.16,109.14,283.24,124.75Z"/><path class="cls-1" d="M229.79,167.58q-.47-1.91-.93-3.84C216.77,164,170,165.39,165.7,175,186,167.48,220.08,167.43,229.79,167.58Z"/><path class="cls-2" d="M153.73,127.2c-17.95-3.62-28.6-9-31.67-16.09A18,18,0,0,1,123.12,94c3.46-5.28,9.58-8.26,17.28-8.48a26.81,26.81,0,0,1,2.4-8.59c-9.28.63-30.36,4.41-31.08,25.63a18.6,18.6,0,0,0,5.17,14.11c8.87,9.17,26.67,10.54,36.5,10.54Z"/><path class="cls-2" d="M217,186.14a72.06,72.06,0,0,0-20.8-3.08A79.73,79.73,0,0,0,164.28,190l-1.37.59,0-1.49c-.19-5.44-7.54-45.54-8.84-52.6l-4.8,1.18c.91,6.17,6.14,42,8.87,62.62C168.14,192.06,188.77,184.65,217,186.14Z"/><path class="cls-2" d="M229.92,120.53l.1-.4.35-.22c.35-.22,34.61-23.35,24.13-45.47-4.07-8.61-11.23-13-21.27-13a49.8,49.8,0,0,0-16.83,3.38,24.47,24.47,0,0,1,3.51,6.9,18,18,0,0,1,9.69-2.9,18.33,18.33,0,0,1,17.48,13.49c3.2,11.46-4.55,24.14-20.73,33.93-6.39,3.86-12.32,5.83-17.61,5.83h0c-12.1,0-18.06-9.89-21.27-15.2-.17-.28-.33-.56-.49-.81-.78,2.51-.26,6.09,1.45,9.34s7.07,10.65,20.42,10.65a45.36,45.36,0,0,0,11-1.48l.93-.24.29.92c2.14,6.88,6.23,23.31,9.88,38.44.32,1.32.63,2.62.94,3.91,3.46,14.39,6.31,26.68,6.37,26.94l.28,1.18a32.29,32.29,0,0,0,6.24,1.46C238.74,178.51,226.11,136.19,229.92,120.53Z"/><path class="cls-2" d="M142.36,86.53c0,.34,0,.67,0,1,0,.19,0,.37,0,.56.16,7.21,4.45,12.37,11.62,14.15-4.47-7.31-5.51-14.26-3-20.23,3.5-8.34,13.48-14,29.67-16.75a63,63,0,0,1,10.58-1c19.83,0,22.52,12.46,24,19.16.13.6.25,1.15.37,1.63,2.64-1.48,3.87-5.19,3.14-9.81,0,0,0-.05,0-.07-.06-.37-.14-.75-.22-1.13-.14-.61-.3-1.22-.5-1.84a22.71,22.71,0,0,0-3.5-6.61c-.21-.28-.43-.55-.65-.82s-.46-.55-.7-.81c-5.06-5.61-13.41-9.8-25-9.8a58.53,58.53,0,0,0-10.58,1c-15.44,2.84-26,10.8-31.28,19.57-.21.34-.41.68-.59,1s-.37.68-.54,1a25.35,25.35,0,0,0-2.64,8.69C142.4,85.84,142.38,86.19,142.36,86.53Z"/><path class="cls-2" d="M362.78,164c-25.58,0-64.94-8.2-79.34-19.19a52.79,52.79,0,0,1-8-7.36c-1.44,1.32-2.77,2.6-3.89,3.78,2.56,3.82,6.57,7.89,12.74,11.95,14.58,9.57,45,17.07,69.27,17.07,13.17,0,22.61-2.32,26.57-6.53a8.1,8.1,0,0,0,1.78-2.89C378.61,162.9,372.22,164,362.78,164Z"/><path class="cls-2" d="M274.39,198.26a28.7,28.7,0,0,1-6.26-3.84,1.23,1.23,0,0,1-.42-.86c.36-7.93,4-41.76,4.65-47.92a34.37,34.37,0,0,1-2.24-2.9,14.67,14.67,0,0,0-1.76,2.46.78.78,0,0,1-.45.37.6.6,0,0,1-.22,0,.83.83,0,0,1-.27-.07c-1.47,14.58-4.09,41.25-4.06,45.73a10.66,10.66,0,0,0,2.4,6.85C267.73,198,271.25,198.17,274.39,198.26Z"/><path class="cls-2" d="M364.09,179.12c-.8,1.77-5.27,11.61-9.93,20.93a23.72,23.72,0,0,1,2.54,2.66c5-10.15,10.59-21.28,12.2-24.49Z"/><path class="cls-2" d="M241.11,178.13c5.67-14,11.56-28.68,12.71-31.55l-2.51-.82L239.14,171Q240.12,174.66,241.11,178.13Z"/><path class="cls-2" d="M264.65,151l-3.93-1.16-14.8,44.23,0,.11c1-.35,2.13-.79,3.29-1.28C255.49,176,263.35,154.58,264.65,151Z"/><text class="cls-3" transform="translate(501.21 141.44)">REPOSTERÍA</text><text class="cls-4" transform="translate(501.21 204.71)">&amp; <tspan class="cls-5" x="86.82" y="0">P</tspan><tspan class="cls-6" x="139.6" y="0">AN </tspan><tspan class="cls-7" x="292.19" y="0">MX</tspan></text><text class="cls-8" transform="translate(501.21 78.19)">EXPO</text><line class="cls-9" x1="442.82" y1="39.12" x2="442.82" y2="203.1"/></svg>